# xmcd
#
# Track frame offsets:
#	182
#	11640
#	28340
#	42125
#	54152
#	67680
#	79952
#	98940
#	122895
#
# Disc length: 1806 seconds
#
# Revision: 0
# Processed by: cddbd v1.5.2PL0 Copyright (c) Steve Scherf et al.
# Submitted via: EasyCDDAExtractor 12.0.1.1
#
DISCID=6d070c09
DTITLE=Joe Don Silvers - American Heroes
DYEAR=1900
DGENRE=Country
TTITLE0=American Heroes
TTITLE1=I'll Stand Up For You
TTITLE2=My Hero Slipped Into The Night
TTITLE3=Dallas, 1963
TTITLE4=America, You've Sure Been Good To Me
TTITLE5=This Bud's For You
TTITLE6=Ira Hayes
TTITLE7=Trail Of Tears
TTITLE8=Tribute To Roy Acuff
EXTD=
EXTT0=
EXTT1=
EXTT2=
EXTT3=
EXTT4=
EXTT5=
EXTT6=
EXTT7=
EXTT8=
PLAYORDER=
